<svg id="Layer_1" data-name="Layer 1" xmlns="http://www.w3.org/2000/svg" viewBox="0 0 819 203"><defs><style>.cls-1{fill:#112547;}.cls-2{fill:#54b848;}.cls-3{fill:#19803f;}</style></defs><path class="cls-1" d="M224.66,144.27V23.16H257V144.27Z"/><path class="cls-1" d="M282.68,144.27V23.16h28.59L358.12,90V23.16h32.31V144.27H362L311.48,75.65l1.93,68.62Z"/><polyline class="cls-1" points="447.15 101.48 459.33 64.09 464.62 79.04 497.87 79.22 477.43 23.16 444.28 23.16 400.13 144.27 434.3 144.27 440.05 127.19"/><polygon class="cls-1" points="512.33 123.15 519.66 145.25 486.41 145.07 481.13 122.86 512.33 123.15"/><polyline class="cls-2" points="445.61 106.58 398.17 77 664.24 85.16 499.67 98.93 530.33 124.34 50.38 118.01"/><path class="cls-3" d="M398.83,77l393.26,5.64a.31.31,0,0,1,0,.61l-284,19.25c-.28,0-.4.37.13,1.07l22.15,21.54"/><path class="cls-1" d="M683.9,110.61v33.66H651.59V23.16H683.9V71"/><polygon class="cls-1" points="710.62 22 747.53 22 713.38 84.44 748.66 147.62 711.3 147.62 675.3 81.9 710.62 22"/><polygon class="cls-1" points="627.58 94.19 593.25 95.38 596.92 101.48 572.73 101.48 584.91 64.09 590.29 80.62 623.43 80.23 603.01 23.16 569.85 23.16 525.71 144.27 559.87 144.27 565.63 127.19 607.24 127.19 612.99 144.27 647.16 144.27 627.58 94.19"/><path class="cls-1" d="M151.57,144.27H119.26V23.16h55.65q17.43,0,28.93,11.25t11.5,29.68q0,18.61-11.5,29.77T174.91,105H151.57ZM170.18,76.1a11.5,11.5,0,0,0,8.37-3q3.13-3,3.13-9,0-11.49-11.5-12H151.57v24Z"/><polygon class="cls-2" points="41.63 95.78 81.87 95.36 96.96 112.55 56.72 112.12 41.63 95.78"/><polygon class="cls-3" points="55.34 123.58 95.58 123.58 80.49 141.59 36.89 142.02 55.34 123.58"/><polygon class="cls-2" points="736.44 59.38 798.83 82.44 735.08 106.85 752.71 82.44 736.44 59.38"/><polyline class="cls-3" points="736.6 59.64 752.92 82.59 798.83 82.59 737.97 60.05"/><path d="M219.84,177.28l1.71-2a8.76,8.76,0,0,0,6.19,2.78c2.94,0,4.69-1.47,4.69-3.65s-1.63-3-3.74-3.95l-3.23-1.42c-2.09-.89-4.54-2.48-4.54-5.78s3-6,7.06-6a9.31,9.31,0,0,1,6.61,2.78L233.08,162a7.19,7.19,0,0,0-5.1-2.11c-2.51,0-4.18,1.27-4.18,3.28,0,2.16,2,3,3.71,3.72l3.2,1.38c2.6,1.12,4.63,2.66,4.63,6,0,3.55-2.93,6.38-7.65,6.38A10.78,10.78,0,0,1,219.84,177.28Z"/><path d="M239.46,163.58h2.32L242,166h.09c1.46-1.58,3.2-2.82,5.18-2.82a4.39,4.39,0,0,1,4.59,3.16c1.72-1.87,3.46-3.16,5.48-3.16,3.41,0,5.06,2.25,5.06,6.5V180.2H259.6V170c0-3.1-1-4.42-3.09-4.42-1.29,0-2.63.84-4.17,2.55v12h-2.81V170c0-3.1-1-4.42-3.09-4.42-1.25,0-2.63.84-4.17,2.55v12h-2.81Z"/><path d="M266.77,175.88c0-3.62,3.13-5.43,10.21-6.2,0-2.14-.71-4.2-3.43-4.2a9.21,9.21,0,0,0-5,1.78l-1.1-1.93a12.26,12.26,0,0,1,6.53-2.16c4.06,0,5.78,2.69,5.78,6.83v10.2h-2.33l-.24-2h-.09a8.8,8.8,0,0,1-5.5,2.4A4.52,4.52,0,0,1,266.77,175.88Zm10.21.26v-4.61c-5.57.67-7.45,2-7.45,4.15,0,1.89,1.28,2.66,2.91,2.66S275.37,177.56,277,176.14Z"/><path d="M285,163.58h2.32l.24,3h.09c1.16-2.11,2.86-3.43,4.73-3.43a3.84,3.84,0,0,1,1.77.34l-.52,2.46a4.71,4.71,0,0,0-1.62-.27c-1.4,0-3.08,1-4.2,3.82V180.2H285Z"/><path d="M297.39,175.06v-9.19h-2.47v-2.13l2.6-.16.34-4.67h2.35v4.67h4.5v2.29h-4.5v9.24c0,2,.65,3.21,2.57,3.21a5.62,5.62,0,0,0,1.89-.45l.54,2.12a9.87,9.87,0,0,1-3.08.62C298.59,180.61,297.39,178.37,297.39,175.06Z"/><path d="M315.56,157.75h12.93v2.42H318.41v7h8.51v2.42h-8.51v8.16h10.42v2.42H315.56Z"/><path d="M333.31,163.58h2.33l.23,2.39h.1c1.58-1.56,3.29-2.8,5.57-2.8,3.5,0,5.08,2.25,5.08,6.5V180.2H343.8V170c0-3.1-.93-4.42-3.13-4.42-1.7,0-2.88.86-4.55,2.55v12h-2.81Z"/><path d="M350.78,171.91c0-5.41,3.65-8.74,7.47-8.74,4.24,0,6.63,3,6.63,7.79a9,9,0,0,1-.13,1.6H353.56c.2,3.52,2.35,5.81,5.52,5.81a7.29,7.29,0,0,0,4.14-1.33l1,1.84a9.74,9.74,0,0,1-5.49,1.73C354.31,180.61,350.78,177.37,350.78,171.91Zm11.62-1.36c0-3.33-1.5-5.14-4.1-5.14-2.33,0-4.42,1.87-4.76,5.14Z"/><path d="M369,163.58h2.33l.23,3h.1c1.15-2.11,2.85-3.43,4.72-3.43a3.85,3.85,0,0,1,1.78.34L377.6,166a4.61,4.61,0,0,0-1.61-.27c-1.4,0-3.08,1-4.2,3.82V180.2H369Z"/><path d="M379.23,183.39a4.69,4.69,0,0,1,2.44-3.76v-.13a3.1,3.1,0,0,1-1.49-2.73,4,4,0,0,1,1.83-3.08v-.14a5.78,5.78,0,0,1-2.15-4.46c0-3.64,2.87-5.92,6.24-5.92a6.5,6.5,0,0,1,2.34.41h5.8v2.16h-3.41a4.78,4.78,0,0,1,1.35,3.42c0,3.56-2.68,5.76-6.08,5.76a5.83,5.83,0,0,1-2.48-.56,2.43,2.43,0,0,0-1.06,2c0,1,.69,1.8,2.92,1.8h3.23c3.86,0,5.81,1.21,5.81,4,0,3.09-3.27,5.75-8.41,5.75C382,187.85,379.23,186.25,379.23,183.39Zm12.53-.87c0-1.54-1.17-2.06-3.35-2.06h-2.87a9.5,9.5,0,0,1-2.16-.25,3.47,3.47,0,0,0-1.69,2.79c0,1.78,1.8,2.91,4.82,2.91C389.68,185.91,391.76,184.25,391.76,182.52Zm-2.13-13.43a3.56,3.56,0,0,0-3.53-3.89c-2,0-3.53,1.45-3.53,3.89a3.55,3.55,0,1,0,7.06,0Z"/><path d="M396.88,187l.55-2.24a4.4,4.4,0,0,0,1.27.25c1.87,0,3.06-1.51,3.74-3.57l.38-1.23-6.67-16.65h2.9l3.39,9.2c.53,1.44,1.08,3.14,1.62,4.68h.14c.47-1.51.94-3.21,1.4-4.68l3-9.2h2.76l-6.27,18c-1.17,3.29-2.89,5.79-6.22,5.79A5.54,5.54,0,0,1,396.88,187Z"/><path d="M421.61,157.75h3.44l4.31,12c.54,1.53,1.05,3.11,1.59,4.67h.14c.54-1.56,1-3.14,1.55-4.67l4.25-12h3.44V180.2h-2.66V167.84c0-2,.22-4.65.37-6.64h-.14l-1.78,5.12-4.23,11.61H430l-4.25-11.61L424,161.2h-.13c.14,2,.36,4.69.36,6.64V180.2h-2.59Z"/><path d="M445.18,175.88c0-3.62,3.12-5.43,10.21-6.2,0-2.14-.72-4.2-3.43-4.2a9.15,9.15,0,0,0-5,1.78l-1.1-1.93a12.22,12.22,0,0,1,6.53-2.16c4.05,0,5.77,2.69,5.77,6.83v10.2h-2.32l-.24-2h-.1a8.8,8.8,0,0,1-5.49,2.4A4.52,4.52,0,0,1,445.18,175.88Zm10.21.26v-4.61c-5.57.67-7.46,2-7.46,4.15,0,1.89,1.29,2.66,2.92,2.66S453.78,177.56,455.39,176.14Z"/><path d="M463.44,163.58h2.32L466,166h.09c1.59-1.56,3.3-2.8,5.58-2.8,3.5,0,5.08,2.25,5.08,6.5V180.2h-2.82V170c0-3.1-.93-4.42-3.13-4.42-1.7,0-2.88.86-4.55,2.55v12h-2.81Z"/><path d="M481.11,175.88c0-3.62,3.13-5.43,10.21-6.2,0-2.14-.71-4.2-3.43-4.2a9.21,9.21,0,0,0-5,1.78l-1.1-1.93a12.22,12.22,0,0,1,6.53-2.16c4.06,0,5.77,2.69,5.77,6.83v10.2h-2.32l-.24-2h-.09a8.82,8.82,0,0,1-5.5,2.4A4.52,4.52,0,0,1,481.11,175.88Zm10.21.26v-4.61c-5.57.67-7.45,2-7.45,4.15,0,1.89,1.28,2.66,2.91,2.66S489.71,177.56,491.32,176.14Z"/><path d="M498.11,183.39a4.69,4.69,0,0,1,2.44-3.76v-.13a3.1,3.1,0,0,1-1.49-2.73,4,4,0,0,1,1.83-3.08v-.14a5.78,5.78,0,0,1-2.15-4.46c0-3.64,2.87-5.92,6.24-5.92a6.5,6.5,0,0,1,2.34.41h5.8v2.16h-3.41a4.82,4.82,0,0,1,1.35,3.42c0,3.56-2.69,5.76-6.08,5.76a5.83,5.83,0,0,1-2.48-.56,2.43,2.43,0,0,0-1.06,2c0,1,.69,1.8,2.91,1.8h3.24c3.86,0,5.81,1.21,5.81,4,0,3.09-3.27,5.75-8.41,5.75C500.92,187.85,498.11,186.25,498.11,183.39Zm12.53-.87c0-1.54-1.17-2.06-3.35-2.06h-2.87a9.5,9.5,0,0,1-2.16-.25,3.47,3.47,0,0,0-1.69,2.79c0,1.78,1.8,2.91,4.82,2.91C508.56,185.91,510.64,184.25,510.64,182.52Zm-2.13-13.43A3.56,3.56,0,0,0,505,165.2c-2,0-3.53,1.45-3.53,3.89a3.55,3.55,0,1,0,7.06,0Z"/><path d="M515,171.91c0-5.41,3.65-8.74,7.47-8.74,4.24,0,6.63,3,6.63,7.79a9,9,0,0,1-.13,1.6H517.81c.2,3.52,2.35,5.81,5.52,5.81a7.29,7.29,0,0,0,4.14-1.33l1,1.84a9.74,9.74,0,0,1-5.49,1.73C518.56,180.61,515,177.37,515,171.91Zm11.62-1.36c0-3.33-1.5-5.14-4.1-5.14-2.34,0-4.42,1.87-4.76,5.14Z"/><path d="M533.22,163.58h2.33l.23,2.41h.1c1.45-1.58,3.19-2.82,5.17-2.82a4.39,4.39,0,0,1,4.59,3.16c1.73-1.87,3.46-3.16,5.48-3.16,3.42,0,5.06,2.25,5.06,6.5V180.2h-2.81V170c0-3.1-1-4.42-3.1-4.42-1.29,0-2.63.84-4.16,2.55v12h-2.82V170c0-3.1-1-4.42-3.09-4.42-1.24,0-2.63.84-4.16,2.55v12h-2.82Z"/><path d="M560.33,171.91c0-5.41,3.65-8.74,7.47-8.74,4.24,0,6.64,3,6.64,7.79a9,9,0,0,1-.13,1.6h-11.2c.2,3.52,2.36,5.81,5.52,5.81a7.29,7.29,0,0,0,4.14-1.33l1,1.84a9.74,9.74,0,0,1-5.49,1.73C563.86,180.61,560.33,177.37,560.33,171.91ZM572,170.55c0-3.33-1.5-5.14-4.1-5.14-2.33,0-4.42,1.87-4.76,5.14Z"/><path d="M578.52,163.58h2.33l.23,2.39h.1c1.58-1.56,3.29-2.8,5.57-2.8,3.51,0,5.08,2.25,5.08,6.5V180.2H589V170c0-3.1-.94-4.42-3.14-4.42-1.7,0-2.88.86-4.54,2.55v12h-2.82Z"/><path d="M597.72,175.06v-9.19h-2.47v-2.13l2.59-.16.34-4.67h2.35v4.67H605v2.29h-4.51v9.24c0,2,.66,3.21,2.57,3.21a5.68,5.68,0,0,0,1.9-.45l.54,2.12a9.93,9.93,0,0,1-3.08.62C598.92,180.61,597.72,178.37,597.72,175.06Z"/><path d="M613.83,163.74l2.38-.16h6.21v2.29h-8.59Zm2.25-2.79c0-3.38,1.54-5.52,4.87-5.52a7.28,7.28,0,0,1,2.76.57l-.59,2.15a4.42,4.42,0,0,0-1.88-.43c-1.57,0-2.34,1.09-2.34,3.24V180.2h-2.82Z"/><path d="M624,171.91c0-5.55,3.63-8.74,7.7-8.74s7.7,3.19,7.7,8.74-3.62,8.7-7.7,8.7S624,177.41,624,171.91Zm12.5,0c0-3.81-1.94-6.4-4.8-6.4s-4.8,2.59-4.8,6.4,1.94,6.36,4.8,6.36S636.53,175.72,636.53,171.91Z"/><path d="M643.79,163.58h2.33l.23,3h.1c1.16-2.11,2.85-3.43,4.72-3.43a3.85,3.85,0,0,1,1.78.34l-.53,2.46a4.61,4.61,0,0,0-1.61-.27c-1.4,0-3.08,1-4.2,3.82V180.2h-2.82Z"/><path d="M661.13,177.28l1.71-2A8.8,8.8,0,0,0,669,178.1c3,0,4.69-1.47,4.69-3.65s-1.62-3-3.74-3.95l-3.22-1.42c-2.09-.89-4.55-2.48-4.55-5.78s3-6,7.07-6a9.27,9.27,0,0,1,6.6,2.78L674.37,162a7.16,7.16,0,0,0-5.09-2.11c-2.52,0-4.19,1.27-4.19,3.28,0,2.16,2,3,3.72,3.72l3.2,1.38c2.59,1.12,4.62,2.66,4.62,6,0,3.55-2.93,6.38-7.65,6.38A10.78,10.78,0,0,1,661.13,177.28Z"/><path d="M679.52,171.91c0-5.55,3.63-8.74,7.7-8.74s7.7,3.19,7.7,8.74-3.62,8.7-7.7,8.7S679.52,177.41,679.52,171.91Zm12.5,0c0-3.81-1.94-6.4-4.8-6.4s-4.8,2.59-4.8,6.4,1.94,6.36,4.8,6.36S692,175.72,692,171.91Z"/><path d="M699.29,176.86v-21h2.81v21.22c0,.86.37,1.21.78,1.21a2.42,2.42,0,0,0,.62-.07l.38,2.14a4.36,4.36,0,0,1-1.62.27C700.15,180.61,699.29,179.26,699.29,176.86Z"/><path d="M707,175.88c0-3.62,3.13-5.43,10.21-6.2,0-2.14-.71-4.2-3.43-4.2a9.21,9.21,0,0,0-5,1.78l-1.1-1.93a12.22,12.22,0,0,1,6.53-2.16c4.06,0,5.77,2.69,5.77,6.83v10.2h-2.32l-.24-2h-.09a8.8,8.8,0,0,1-5.5,2.4A4.52,4.52,0,0,1,707,175.88Zm10.21.26v-4.61c-5.57.67-7.45,2-7.45,4.15,0,1.89,1.28,2.66,2.91,2.66S715.57,177.56,717.18,176.14Z"/><path d="M725.24,163.58h2.32l.24,3h.09c1.16-2.11,2.86-3.43,4.73-3.43a3.84,3.84,0,0,1,1.77.34l-.52,2.46a4.71,4.71,0,0,0-1.62-.27c-1.4,0-3.08,1-4.2,3.82V180.2h-2.81Z"/></svg>